<svg xmlns="http://www.w3.org/2000/svg" version="1.1" xmlns:xlink="http://www.w3.org/1999/xlink" xmlns:svgjs="http://svgjs.dev/svgjs" width="1000" height="1000"><g clip-path="url(#SvgjsClipPath1150)"><rect width="1000" height="1000" fill="#ffffff"></rect><g transform="matrix(31.25,0,0,31.25,0,0)"><svg xmlns="http://www.w3.org/2000/svg" version="1.1" xmlns:xlink="http://www.w3.org/1999/xlink" xmlns:svgjs="http://svgjs.dev/svgjs" width="32" height="32"><svg xmlns="http://www.w3.org/2000/svg" viewBox="0 0 32 32">
  <!-- Simplified puzzle piece -->
  <path d="M16 8 C16 6, 14 6, 14 8 L14 12 L10 12 C8 12, 8 14, 10 14 L14 14 L14 18 C14 20, 16 20, 16 18 L16 14 L20 14 C22 14, 22 12, 20 12 L16 12 Z" fill="#8A2BE2"></path>
  
  <!-- Simplified D-pad -->
  <rect x="18" y="16" width="8" height="6" rx="1" fill="#FF69B4"></rect>
  <rect x="17" y="17" width="10" height="4" rx="1" fill="#FF69B4"></rect>
  
  <!-- Simplified buttons -->
  <circle cx="12" cy="22" r="2" fill="#32CD32"></circle>
  <circle cx="16" cy="24" r="2" fill="#4169E1"></circle>
</svg></svg></g></g><defs><clipPath id="SvgjsClipPath1150"><rect width="1000" height="1000" x="0" y="0" rx="500" ry="500"></rect></clipPath></defs></svg>