<svg xmlns="http://www.w3.org/2000/svg" viewBox="0 0 120 120">
  <!-- Puzzle piece -->
  <path d="M45 30 C45 25, 40 25, 40 30 L40 40 L30 40 C25 40, 25 45, 30 45 L40 45 L40 55 C40 60, 45 60, 45 55 L45 45 L55 45 C60 45, 60 40, 55 40 L45 40 Z" fill="#8A2BE2"/>
  
  <!-- D-pad -->
  <rect x="65" y="45" width="20" height="30" rx="2" fill="#FF69B4"/>
  <rect x="60" y="50" width="30" height="20" rx="2" fill="#FF69B4"/>
  
  <!-- Action buttons -->
  <circle cx="45" cy="75" r="6" fill="#32CD32"/>
  <circle cx="55" cy="85" r="6" fill="#4169E1"/>
  
  <!-- Subtle highlights -->
  <circle cx="85" cy="35" r="8" fill="#8A2BE2" opacity="0.3"/>
  <circle cx="90" cy="40" r="4" fill="#FF69B4" opacity="0.3"/>
</svg>